<svg width="32" height="32" viewBox="0 0 32 32" fill="none" xmlns="http://www.w3.org/2000/svg">
<path fill-rule="evenodd" clip-rule="evenodd" d="M20.4109 6.76862L20.4119 7.51824C23.1665 7.73413 24.9862 9.61119 24.9891 12.4898L25 20.9155C25.0039 24.054 23.0322 25.985 19.8718 25.99L12.1519 26C9.01119 26.004 7.01482 24.027 7.01087 20.8795L7.00001 12.5527C6.99606 9.65517 8.75153 7.78311 11.5062 7.53024L11.5052 6.78061C11.5042 6.34083 11.83 6.01 12.2644 6.01C12.6989 6.009 13.0247 6.33883 13.0257 6.77861L13.0267 7.47826L18.8914 7.47027L18.8904 6.77062C18.8894 6.33084 19.2152 6.001 19.6497 6C20.0742 5.999 20.4099 6.32884 20.4109 6.76862ZM8.52148 12.8616L23.4696 12.8416V12.4918C23.4272 10.3428 22.349 9.21539 20.4138 9.04748L20.4148 9.81709C20.4148 10.2469 20.0801 10.5877 19.6556 10.5877C19.2212 10.5887 18.8943 10.2489 18.8943 9.81909L18.8934 9.0095L13.0286 9.01749L13.0296 9.82609C13.0296 10.2569 12.7048 10.5967 12.2704 10.5967C11.8359 10.5977 11.5091 10.2589 11.5091 9.82809L11.5081 9.05847C9.58286 9.25137 8.51753 10.3828 8.52049 12.5507L8.52148 12.8616ZM19.2399 17.4043V17.4153C19.2498 17.8751 19.625 18.2239 20.0801 18.2139C20.5244 18.2029 20.8789 17.8221 20.869 17.3623C20.8483 16.9225 20.4918 16.5637 20.0485 16.5647C19.5944 16.5747 19.2389 16.9445 19.2399 17.4043ZM20.0554 21.892C19.6013 21.882 19.235 21.5032 19.234 21.0435C19.2241 20.5837 19.5884 20.2029 20.0426 20.1919H20.0525C20.5165 20.1919 20.8927 20.5707 20.8927 21.0405C20.8937 21.5102 20.5185 21.891 20.0554 21.892ZM15.1721 17.4203C15.1919 17.8801 15.568 18.2389 16.0222 18.2189C16.4665 18.1979 16.821 17.8181 16.8012 17.3583C16.7903 16.9085 16.425 16.5587 15.9807 16.5597C15.5266 16.5797 15.1711 16.9605 15.1721 17.4203ZM16.0262 21.8471C15.572 21.8671 15.1968 21.5082 15.1761 21.0485C15.1761 20.5887 15.5305 20.2089 15.9847 20.1879C16.429 20.1869 16.7953 20.5367 16.8052 20.9855C16.8259 21.4463 16.4705 21.8261 16.0262 21.8471ZM11.1043 17.4553C11.1241 17.915 11.5002 18.2749 11.9544 18.2539C12.3987 18.2339 12.7532 17.8531 12.7324 17.3933C12.7226 16.9435 12.3572 16.5937 11.912 16.5947C11.4578 16.6147 11.1033 16.9955 11.1043 17.4553ZM11.9584 21.8521C11.5042 21.8731 11.129 21.5132 11.1083 21.0535C11.1073 20.5937 11.4627 20.2129 11.9169 20.1929C12.3612 20.1919 12.7275 20.5417 12.7374 20.9915C12.7581 21.4513 12.4037 21.8321 11.9584 21.8521Z" fill="#227DDE"/>
</svg>
