<svg width="285" height="268" viewBox="0 0 285 268" fill="none" xmlns="http://www.w3.org/2000/svg">
<circle cx="128" cy="93" r="92.5" stroke="#227DDE"/>
<circle cx="13.5" cy="254.5" r="13" fill="white" stroke="#227DDE"/>
<path d="M11.8594 248.516C11.8594 248.329 11.7853 248.15 11.6534 248.018C11.5216 247.887 11.3427 247.812 11.1562 247.812C10.9698 247.812 10.7909 247.887 10.6591 248.018C10.5272 248.15 10.4531 248.329 10.4531 248.516V248.984H11.8594V248.516Z" fill="#227DDE"/>
<path d="M9.28125 256.367C8.93359 256.367 8.59373 256.47 8.30466 256.663C8.01559 256.857 7.79029 257.131 7.65724 257.452C7.5242 257.774 7.48939 258.127 7.55721 258.468C7.62504 258.809 7.79246 259.122 8.03829 259.368C8.28412 259.614 8.59734 259.781 8.93832 259.849C9.2793 259.917 9.63274 259.882 9.95394 259.749C10.2751 259.616 10.5497 259.391 10.7428 259.102C10.936 258.813 11.0391 258.473 11.0391 258.125C11.0385 257.659 10.8532 257.212 10.5236 256.883C10.1941 256.553 9.74729 256.368 9.28125 256.367ZM9.28125 258.828C9.14219 258.828 9.00624 258.787 8.89062 258.71C8.77499 258.632 8.68487 258.523 8.63165 258.394C8.57843 258.266 8.56451 258.124 8.59164 257.988C8.61877 257.851 8.68573 257.726 8.78407 257.628C8.8824 257.529 9.00769 257.463 9.14408 257.435C9.28047 257.408 9.42185 257.422 9.55033 257.475C9.6788 257.529 9.78862 257.619 9.86588 257.734C9.94314 257.85 9.98438 257.986 9.98438 258.125C9.98438 258.311 9.9103 258.49 9.77844 258.622C9.64657 258.754 9.46773 258.828 9.28125 258.828Z" fill="#227DDE"/>
<path d="M18.1875 256.367C17.8398 256.367 17.5 256.47 17.2109 256.663C16.9218 256.857 16.6965 257.131 16.5635 257.452C16.4304 257.774 16.3956 258.127 16.4635 258.468C16.5313 258.809 16.6987 259.122 16.9445 259.368C17.1904 259.614 17.5036 259.781 17.8446 259.849C18.1855 259.917 18.539 259.882 18.8602 259.749C19.1814 259.616 19.4559 259.391 19.6491 259.102C19.8422 258.813 19.9453 258.473 19.9453 258.125C19.9448 257.659 19.7594 257.212 19.4299 256.883C19.1003 256.553 18.6535 256.368 18.1875 256.367ZM18.1875 258.828C18.0484 258.828 17.9125 258.787 17.7969 258.71C17.6812 258.632 17.5911 258.523 17.5379 258.394C17.4847 258.266 17.4708 258.124 17.4979 257.988C17.525 257.851 17.592 257.726 17.6903 257.628C17.7886 257.529 17.9139 257.463 18.0503 257.435C18.1867 257.408 18.3281 257.422 18.4566 257.475C18.585 257.529 18.6949 257.619 18.7721 257.734C18.8494 257.85 18.8906 257.986 18.8906 258.125C18.8906 258.311 18.8165 258.49 18.6847 258.622C18.5528 258.754 18.374 258.828 18.1875 258.828Z" fill="#227DDE"/>
<path d="M20.4941 254.901L18.8994 254.103C18.6271 253.683 17.4092 251.805 17.0605 251.349C17.0277 251.306 16.9855 251.271 16.937 251.247C16.8886 251.223 16.8353 251.211 16.7812 251.211H15.1235L14.4775 249.919C14.3905 249.743 14.256 249.596 14.0892 249.493C13.9225 249.39 13.7302 249.335 13.5342 249.336H6.82031C6.6339 249.336 6.45518 249.41 6.32337 249.542C6.19155 249.674 6.1174 249.853 6.11719 250.039V257.422C6.1175 257.702 6.22872 257.97 6.42644 258.167C6.62417 258.365 6.89225 258.476 7.17188 258.477H7.20173C7.15027 258.174 7.16547 257.864 7.24627 257.568C7.32706 257.272 7.4715 256.997 7.66951 256.762C7.86752 256.528 8.11433 256.339 8.3927 256.21C8.67108 256.081 8.97431 256.014 9.28125 256.014C9.58819 256.014 9.89142 256.081 10.1698 256.21C10.4482 256.339 10.695 256.528 10.893 256.762C11.091 256.997 11.2354 257.272 11.3162 257.568C11.397 257.864 11.4122 258.174 11.3608 258.477H16.108C16.0572 258.178 16.0711 257.872 16.1489 257.58C16.2267 257.288 16.3665 257.015 16.5589 256.782C16.7512 256.548 16.9916 256.359 17.2636 256.226C17.5357 256.093 17.8331 256.021 18.1356 256.014C18.4381 256.006 18.7387 256.064 19.0169 256.183C19.2952 256.302 19.5445 256.479 19.7481 256.703C19.9517 256.927 20.1047 257.192 20.1968 257.481C20.2888 257.769 20.3178 258.074 20.2817 258.374C20.4615 258.288 20.6134 258.153 20.7198 257.985C20.8261 257.816 20.8827 257.621 20.8828 257.422V255.53C20.8833 255.399 20.8471 255.271 20.7784 255.16C20.7097 255.049 20.6112 254.959 20.4941 254.901ZM13.0312 253.32C13.0312 253.414 12.9942 253.503 12.9283 253.569C12.8623 253.635 12.7729 253.672 12.6797 253.672H11.8594V254.492C11.8594 254.585 11.8223 254.675 11.7564 254.741C11.6905 254.807 11.6011 254.844 11.5078 254.844H10.8047C10.7114 254.844 10.622 254.807 10.5561 254.741C10.4902 254.675 10.4531 254.585 10.4531 254.492V253.672H9.63281C9.53957 253.672 9.45015 253.635 9.38422 253.569C9.31829 253.503 9.28125 253.414 9.28125 253.32V252.617C9.28125 252.524 9.31829 252.435 9.38422 252.369C9.45015 252.303 9.53957 252.266 9.63281 252.266H10.4531V251.445C10.4531 251.352 10.4902 251.263 10.5561 251.197C10.622 251.131 10.7114 251.094 10.8047 251.094H11.5078C11.6011 251.094 11.6905 251.131 11.7564 251.197C11.8223 251.263 11.8594 251.352 11.8594 251.445V252.266H12.6797C12.7729 252.266 12.8623 252.303 12.9283 252.369C12.9942 252.435 13.0312 252.524 13.0312 252.617V253.32ZM16.3125 255.664H15.873C15.7798 255.664 15.6904 255.627 15.6245 255.561C15.5585 255.495 15.5215 255.406 15.5215 255.313C15.5215 255.219 15.5585 255.13 15.6245 255.064C15.6904 254.998 15.7798 254.961 15.873 254.961H16.3125C16.4057 254.961 16.4952 254.998 16.5611 255.064C16.627 255.13 16.6641 255.219 16.6641 255.313C16.6641 255.406 16.627 255.495 16.5611 255.561C16.4952 255.627 16.4057 255.664 16.3125 255.664ZM18.1503 254.17H15.8438C15.7505 254.17 15.6611 254.133 15.5952 254.067C15.5292 254.001 15.4922 253.912 15.4922 253.818V252.031C15.4922 251.938 15.5292 251.849 15.5952 251.783C15.6611 251.717 15.7505 251.68 15.8438 251.68H16.6436C16.7008 251.68 16.7572 251.694 16.8079 251.72C16.8585 251.747 16.9018 251.786 16.9341 251.833C17.3589 252.456 17.9851 253.416 18.2979 253.899C18.3151 253.925 18.3248 253.956 18.3261 253.987C18.3273 254.019 18.3199 254.05 18.3048 254.078C18.2897 254.106 18.2674 254.129 18.2402 254.145C18.213 254.161 18.1819 254.17 18.1503 254.17Z" fill="#227DDE"/>
<circle cx="271.5" cy="133.5" r="13" fill="white" stroke="#227DDE"/>
<path d="M269.859 127.516C269.859 127.329 269.785 127.15 269.653 127.018C269.522 126.887 269.343 126.812 269.156 126.812C268.97 126.812 268.791 126.887 268.659 127.018C268.527 127.15 268.453 127.329 268.453 127.516V127.984H269.859V127.516Z" fill="#227DDE"/>
<path d="M267.281 135.367C266.934 135.367 266.594 135.47 266.305 135.663C266.016 135.857 265.79 136.131 265.657 136.452C265.524 136.774 265.489 137.127 265.557 137.468C265.625 137.809 265.792 138.122 266.038 138.368C266.284 138.614 266.597 138.781 266.938 138.849C267.279 138.917 267.633 138.882 267.954 138.749C268.275 138.616 268.55 138.391 268.743 138.102C268.936 137.813 269.039 137.473 269.039 137.125C269.039 136.659 268.853 136.212 268.524 135.883C268.194 135.553 267.747 135.368 267.281 135.367ZM267.281 137.828C267.142 137.828 267.006 137.787 266.891 137.71C266.775 137.632 266.685 137.523 266.632 137.394C266.578 137.266 266.565 137.124 266.592 136.988C266.619 136.851 266.686 136.726 266.784 136.628C266.882 136.529 267.008 136.463 267.144 136.435C267.28 136.408 267.422 136.422 267.55 136.475C267.679 136.529 267.789 136.619 267.866 136.734C267.943 136.85 267.984 136.986 267.984 137.125C267.984 137.311 267.91 137.49 267.778 137.622C267.647 137.754 267.468 137.828 267.281 137.828Z" fill="#227DDE"/>
<path d="M276.187 135.367C275.84 135.367 275.5 135.47 275.211 135.663C274.922 135.857 274.697 136.131 274.563 136.452C274.43 136.774 274.396 137.127 274.463 137.468C274.531 137.809 274.699 138.122 274.945 138.368C275.19 138.614 275.504 138.781 275.845 138.849C276.186 138.917 276.539 138.882 276.86 138.749C277.181 138.616 277.456 138.391 277.649 138.102C277.842 137.813 277.945 137.473 277.945 137.125C277.945 136.659 277.759 136.212 277.43 135.883C277.1 135.553 276.654 135.368 276.187 135.367ZM276.187 137.828C276.048 137.828 275.912 137.787 275.797 137.71C275.681 137.632 275.591 137.523 275.538 137.394C275.485 137.266 275.471 137.124 275.498 136.988C275.525 136.851 275.592 136.726 275.69 136.628C275.789 136.529 275.914 136.463 276.05 136.435C276.187 136.408 276.328 136.422 276.457 136.475C276.585 136.529 276.695 136.619 276.772 136.734C276.849 136.85 276.891 136.986 276.891 137.125C276.891 137.311 276.817 137.49 276.685 137.622C276.553 137.754 276.374 137.828 276.187 137.828Z" fill="#227DDE"/>
<path d="M278.494 133.901L276.899 133.103C276.627 132.683 275.409 130.805 275.061 130.349C275.028 130.306 274.985 130.271 274.937 130.247C274.889 130.223 274.835 130.211 274.781 130.211H273.124L272.478 128.919C272.39 128.743 272.256 128.596 272.089 128.493C271.922 128.39 271.73 128.335 271.534 128.336H264.82C264.634 128.336 264.455 128.41 264.323 128.542C264.192 128.674 264.117 128.853 264.117 129.039V136.422C264.117 136.702 264.229 136.97 264.426 137.167C264.624 137.365 264.892 137.476 265.172 137.477H265.202C265.15 137.174 265.165 136.864 265.246 136.568C265.327 136.272 265.472 135.997 265.67 135.762C265.868 135.528 266.114 135.339 266.393 135.21C266.671 135.081 266.974 135.014 267.281 135.014C267.588 135.014 267.891 135.081 268.17 135.21C268.448 135.339 268.695 135.528 268.893 135.762C269.091 135.997 269.235 136.272 269.316 136.568C269.397 136.864 269.412 137.174 269.361 137.477H274.108C274.057 137.178 274.071 136.872 274.149 136.58C274.227 136.288 274.367 136.015 274.559 135.782C274.751 135.548 274.992 135.359 275.264 135.226C275.536 135.093 275.833 135.021 276.136 135.014C276.438 135.006 276.739 135.064 277.017 135.183C277.295 135.302 277.545 135.479 277.748 135.703C277.952 135.927 278.105 136.192 278.197 136.481C278.289 136.769 278.318 137.074 278.282 137.374C278.462 137.288 278.613 137.153 278.72 136.985C278.826 136.816 278.883 136.621 278.883 136.422V134.53C278.883 134.399 278.847 134.271 278.778 134.16C278.71 134.049 278.611 133.959 278.494 133.901ZM271.031 132.32C271.031 132.414 270.994 132.503 270.928 132.569C270.862 132.635 270.773 132.672 270.68 132.672H269.859V133.492C269.859 133.585 269.822 133.675 269.756 133.741C269.69 133.807 269.601 133.844 269.508 133.844H268.805C268.711 133.844 268.622 133.807 268.556 133.741C268.49 133.675 268.453 133.585 268.453 133.492V132.672H267.633C267.54 132.672 267.45 132.635 267.384 132.569C267.318 132.503 267.281 132.414 267.281 132.32V131.617C267.281 131.524 267.318 131.435 267.384 131.369C267.45 131.303 267.54 131.266 267.633 131.266H268.453V130.445C268.453 130.352 268.49 130.263 268.556 130.197C268.622 130.131 268.711 130.094 268.805 130.094H269.508C269.601 130.094 269.69 130.131 269.756 130.197C269.822 130.263 269.859 130.352 269.859 130.445V131.266H270.68C270.773 131.266 270.862 131.303 270.928 131.369C270.994 131.435 271.031 131.524 271.031 131.617V132.32ZM274.312 134.664H273.873C273.78 134.664 273.69 134.627 273.624 134.561C273.559 134.495 273.521 134.406 273.521 134.313C273.521 134.219 273.559 134.13 273.624 134.064C273.69 133.998 273.78 133.961 273.873 133.961H274.312C274.406 133.961 274.495 133.998 274.561 134.064C274.627 134.13 274.664 134.219 274.664 134.313C274.664 134.406 274.627 134.495 274.561 134.561C274.495 134.627 274.406 134.664 274.312 134.664ZM276.15 133.17H273.844C273.751 133.17 273.661 133.133 273.595 133.067C273.529 133.001 273.492 132.912 273.492 132.818V131.031C273.492 130.938 273.529 130.849 273.595 130.783C273.661 130.717 273.751 130.68 273.844 130.68H274.644C274.701 130.68 274.757 130.694 274.808 130.72C274.859 130.747 274.902 130.786 274.934 130.833C275.359 131.456 275.985 132.416 276.298 132.899C276.315 132.925 276.325 132.956 276.326 132.987C276.327 133.019 276.32 133.05 276.305 133.078C276.29 133.106 276.267 133.129 276.24 133.145C276.213 133.161 276.182 133.17 276.15 133.17Z" fill="#227DDE"/>
<circle cx="129" cy="91" r="5" fill="white"/>
<path fill-rule="evenodd" clip-rule="evenodd" d="M116.104 91.0468C116.104 84.3387 121.71 78.9167 128.49 78.9167C135.29 78.9167 140.896 84.3387 140.896 91.0468C140.896 94.4271 139.666 97.5654 137.643 100.225C135.411 103.159 132.659 105.716 129.562 107.722C128.854 108.186 128.214 108.221 127.436 107.722C124.322 105.716 121.57 103.159 119.357 100.225C117.332 97.5654 116.104 94.4271 116.104 91.0468ZM124.408 91.4245C124.408 93.6717 126.242 95.4392 128.49 95.4392C130.74 95.4392 132.592 93.6717 132.592 91.4245C132.592 89.1948 130.74 87.3413 128.49 87.3413C126.242 87.3413 124.408 89.1948 124.408 91.4245Z" fill="#227DDE"/>
</svg>
