<svg width="26" height="26" viewBox="0 0 26 26" fill="none" xmlns="http://www.w3.org/2000/svg">
<circle cx="18" cy="15" r="5" fill="white"/>
<path fill-rule="evenodd" clip-rule="evenodd" d="M3.79163 11.1777C3.79163 6.19446 7.95583 2.16675 12.9929 2.16675C18.0441 2.16675 22.2083 6.19446 22.2083 11.1777C22.2083 13.6887 21.2951 16.02 19.7919 17.996C18.1337 20.1756 16.0898 22.0746 13.7892 23.5652C13.2627 23.9097 12.7875 23.9357 12.2096 23.5652C9.89592 22.0746 7.85205 20.1756 6.208 17.996C4.70377 16.02 3.79163 13.6887 3.79163 11.1777ZM9.96034 11.4582C9.96034 13.1276 11.3226 14.4406 12.9928 14.4406C14.6642 14.4406 16.0395 13.1276 16.0395 11.4582C16.0395 9.80186 14.6642 8.42499 12.9928 8.42499C11.3226 8.42499 9.96034 9.80186 9.96034 11.4582Z" fill="#D13329"/>
</svg>
